<svg width="102" height="58" viewBox="0 0 102 58" fill="none" xmlns="http://www.w3.org/2000/svg">
<path d="M8.744 20L5.552 13.904H5.528V20H0.2V3.008H8.12C9.496 3.008 10.672 3.256 11.648 3.752C12.624 4.232 13.352 4.896 13.832 5.744C14.328 6.576 14.576 7.52 14.576 8.576C14.576 9.712 14.256 10.72 13.616 11.6C12.992 12.48 12.088 13.112 10.904 13.496L14.6 20H8.744ZM5.528 10.352H7.64C8.152 10.352 8.536 10.24 8.792 10.016C9.048 9.776 9.176 9.408 9.176 8.912C9.176 8.464 9.04 8.112 8.768 7.856C8.512 7.6 8.136 7.472 7.64 7.472H5.528V10.352ZM29.3821 13.112C29.3821 13.48 29.3581 13.832 29.3101 14.168H20.7421C20.8221 15.336 21.3101 15.92 22.2061 15.92C22.7821 15.92 23.1981 15.656 23.4541 15.128H29.0941C28.9021 16.088 28.4941 16.952 27.8701 17.72C27.2621 18.472 26.4861 19.072 25.5421 19.52C24.6141 19.952 23.5901 20.168 22.4701 20.168C21.1261 20.168 19.9261 19.888 18.8701 19.328C17.8301 18.768 17.0141 17.968 16.4221 16.928C15.8461 15.872 15.5581 14.64 15.5581 13.232C15.5581 11.824 15.8461 10.6 16.4221 9.56C17.0141 8.504 17.8301 7.696 18.8701 7.136C19.9261 6.576 21.1261 6.296 22.4701 6.296C23.8141 6.296 25.0061 6.576 26.0461 7.136C27.1021 7.68 27.9181 8.464 28.4941 9.488C29.0861 10.512 29.3821 11.72 29.3821 13.112ZM23.9821 11.84C23.9821 11.392 23.8381 11.056 23.5501 10.832C23.2621 10.592 22.9021 10.472 22.4701 10.472C21.5261 10.472 20.9741 10.928 20.8141 11.84H23.9821ZM38.8672 5.504C38.5792 5.472 38.3792 5.456 38.2672 5.456C37.8672 5.456 37.5632 5.536 37.3552 5.696C37.1472 5.84 37.0032 6.096 36.9232 6.464H38.8672V10.904H36.8752V20H31.5472V10.904H30.1072V6.464H31.5472C31.5792 4.704 32.1312 3.344 33.2032 2.384C34.2912 1.408 35.8112 0.92 37.7632 0.92C37.9872 0.92 38.3552 0.935999 38.8672 0.967999V5.504ZM54.6296 6.464V20H49.3016V17.936C48.8856 18.576 48.3256 19.096 47.6216 19.496C46.9336 19.896 46.1096 20.096 45.1496 20.096C43.5976 20.096 42.3816 19.576 41.5016 18.536C40.6376 17.496 40.2056 16.088 40.2056 14.312V6.464H45.5096V13.64C45.5096 14.28 45.6776 14.792 46.0136 15.176C46.3656 15.544 46.8296 15.728 47.4056 15.728C47.9976 15.728 48.4616 15.544 48.7976 15.176C49.1336 14.792 49.3016 14.28 49.3016 13.64V6.464H54.6296ZM61.9079 6.296C62.7879 6.296 63.5479 6.48 64.1879 6.848C64.8279 7.2 65.3159 7.688 65.6519 8.312V6.464H70.9559V19.76C70.9559 21.024 70.7239 22.176 70.2599 23.216C69.7959 24.256 69.0439 25.088 68.0039 25.712C66.9799 26.336 65.6599 26.648 64.0439 26.648C61.8679 26.648 60.1399 26.136 58.8599 25.112C57.5959 24.104 56.8759 22.728 56.6999 20.984H61.9319C62.0759 21.688 62.6519 22.04 63.6599 22.04C64.2839 22.04 64.7719 21.88 65.1239 21.56C65.4759 21.24 65.6519 20.64 65.6519 19.76V18.152C65.3159 18.776 64.8279 19.272 64.1879 19.64C63.5479 19.992 62.7879 20.168 61.9079 20.168C60.8519 20.168 59.8999 19.896 59.0519 19.352C58.2039 18.792 57.5319 17.992 57.0359 16.952C56.5559 15.896 56.3159 14.656 56.3159 13.232C56.3159 11.808 56.5559 10.576 57.0359 9.536C57.5319 8.48 58.2039 7.68 59.0519 7.136C59.8999 6.576 60.8519 6.296 61.9079 6.296ZM65.6519 13.232C65.6519 12.512 65.4679 11.952 65.0999 11.552C64.7319 11.152 64.2599 10.952 63.6839 10.952C63.1079 10.952 62.6359 11.152 62.2679 11.552C61.8999 11.952 61.7159 12.512 61.7159 13.232C61.7159 13.952 61.8999 14.512 62.2679 14.912C62.6359 15.312 63.1079 15.512 63.6839 15.512C64.2599 15.512 64.7319 15.312 65.0999 14.912C65.4679 14.512 65.6519 13.952 65.6519 13.232ZM86.4524 13.112C86.4524 13.48 86.4284 13.832 86.3804 14.168H77.8124C77.8924 15.336 78.3804 15.92 79.2764 15.92C79.8524 15.92 80.2684 15.656 80.5244 15.128H86.1644C85.9724 16.088 85.5644 16.952 84.9404 17.72C84.3324 18.472 83.5564 19.072 82.6124 19.52C81.6844 19.952 80.6604 20.168 79.5404 20.168C78.1964 20.168 76.9964 19.888 75.9404 19.328C74.9004 18.768 74.0844 17.968 73.4924 16.928C72.9164 15.872 72.6284 14.64 72.6284 13.232C72.6284 11.824 72.9164 10.6 73.4924 9.56C74.0844 8.504 74.9004 7.696 75.9404 7.136C76.9964 6.576 78.1964 6.296 79.5404 6.296C80.8844 6.296 82.0764 6.576 83.1164 7.136C84.1724 7.68 84.9884 8.464 85.5644 9.488C86.1564 10.512 86.4524 11.72 86.4524 13.112ZM81.0524 11.84C81.0524 11.392 80.9084 11.056 80.6204 10.832C80.3324 10.592 79.9724 10.472 79.5404 10.472C78.5964 10.472 78.0444 10.928 77.8844 11.84H81.0524ZM101.242 13.112C101.242 13.48 101.218 13.832 101.17 14.168H92.6015C92.6815 15.336 93.1695 15.92 94.0655 15.92C94.6415 15.92 95.0575 15.656 95.3135 15.128H100.954C100.762 16.088 100.354 16.952 99.7295 17.72C99.1215 18.472 98.3455 19.072 97.4015 19.52C96.4735 19.952 95.4495 20.168 94.3295 20.168C92.9855 20.168 91.7855 19.888 90.7295 19.328C89.6895 18.768 88.8735 17.968 88.2815 16.928C87.7055 15.872 87.4175 14.64 87.4175 13.232C87.4175 11.824 87.7055 10.6 88.2815 9.56C88.8735 8.504 89.6895 7.696 90.7295 7.136C91.7855 6.576 92.9855 6.296 94.3295 6.296C95.6735 6.296 96.8655 6.576 97.9055 7.136C98.9615 7.68 99.7775 8.464 100.354 9.488C100.946 10.512 101.242 11.72 101.242 13.112ZM95.8415 11.84C95.8415 11.392 95.6975 11.056 95.4095 10.832C95.1215 10.592 94.7615 10.472 94.3295 10.472C93.3855 10.472 92.8335 10.928 92.6735 11.84H95.8415ZM16.496 58H11.168L5.528 49.456V58H0.2V41.008H5.528L11.168 49.696V41.008H16.496V58ZM29.3671 47.608V52H18.1831V47.608H29.3671ZM32.0113 44.656H38.6593L42.9793 49.84L38.6593 55H32.0113L36.3313 49.84L32.0113 44.656ZM53.5409 58L51.2609 54.952L49.5569 58H43.7009L48.2369 50.872L43.4609 44.464H49.4129L51.6929 47.536L53.4209 44.464H59.2769L54.5969 51.424L59.4929 58H53.5409ZM69.1162 53.464V58H67.1002C63.3882 58 61.5322 56.152 61.5322 52.456V48.904H59.8522V44.464H61.5322V41.2H66.8602V44.464H69.0682V48.904H66.8602V52.552C66.8602 52.872 66.9322 53.104 67.0762 53.248C67.2362 53.392 67.4922 53.464 67.8442 53.464H69.1162Z" fill="white"/>
</svg>
